<?xml version="1.0"?>
<svg width="24" height="24" xmlns="http://www.w3.org/2000/svg" xmlns:svg="http://www.w3.org/2000/svg" preserveAspectRatio="xMidYMid meet" version="1.0">
 <g class="layer">
  <title>Layer 1</title>
  <g fill="#000000" id="svg_1" transform="matrix(0.00475584 0 0 -0.00475584 110.034 91.9673)">
   <path d="m-21353.36,18606.63l-728,-711l148,-148l148,-148l115,109c64,60 276,269 471,464c195,196 358,356 362,356c5,0 8,-603 8,-1340l0,-1340l210,0l210,0l0,1340c0,737 3,1340 8,1340c4,0 162,-156 352,-346c190,-190 402,-399 471,-464l125,-119l148,148l148,148l-728,711c-400,392 -730,712 -734,712c-3,0 -334,-320 -734,-712z" fill="#faed27" id="svg_2"/>
   <path d="m-22671.36,17237.63c-197,-29 -369,-178 -431,-374l-22,-70l0,-1020c0,-962 1,-1023 18,-1080c28,-89 60,-146 119,-210c67,-74 153,-130 243,-158l70,-22l2055,0l2055,0l70,22c170,54 302,186 361,363c18,52 19,113 22,1045c2,665 -1,1013 -8,1060c-15,97 -67,203 -136,275c-70,73 -132,114 -226,148l-73,27l-712,3l-713,3l0,-211l0,-210l680,0c741,0 713,2 759,-56c21,-27 21,-28 21,-996c0,-1070 4,-1010 -64,-1042c-31,-15 -204,-16 -2034,-16l-1999,0l-34,23c-18,12 -39,34 -46,47c-10,20 -13,239 -13,993c0,896 1,971 17,998c36,61 14,59 777,59l696,0l0,205l0,205l-697,-1c-384,-1 -723,-5 -755,-10z" fill="#faed27" id="svg_3"/>
  </g>
 </g>
</svg>