<?xml version="1.0"?>
<svg width="24" height="24" xmlns="http://www.w3.org/2000/svg" xmlns:svg="http://www.w3.org/2000/svg" data-name="Layer 1">
 <g class="layer">
  <title>Layer 1</title>
  <path d="m13,4a1,1 0 0 0 1,1l3.97,0a2.98,2.98 0 0 0 -0.81,-1.73l-2.29,-2.36a3.01,3.01 0 0 0 -1.87,-0.88l0,3.97zm-2,0l0,-4l-4,0a5.01,5.01 0 0 0 -5,5l0,10a5.01,5.01 0 0 0 5,5l6,0a5.01,5.01 0 0 0 5,-5l0,-8l-4,0a3,3 0 0 1 -3,-3zm6,20l-9,0a1,1 0 0 1 0,-2l9,0a3,3 0 0 0 3,-3l0,-11a1,1 0 0 1 2,0l0,11a5.01,5.01 0 0 1 -5,5z" fill="#faed27" id="svg_1"/>
 </g>
</svg>