<?xml version="1.0"?>
<svg width="24" height="24" xmlns="http://www.w3.org/2000/svg" xmlns:svg="http://www.w3.org/2000/svg">
 <g class="layer">
  <title>Layer 1</title>
  <rect fill="#252525" height="16.5" id="svg_1" stroke="#000000" transform="matrix(1, 0, 0, 1, 0, 0)" width="16.6" x="3.3" y="3.4"/>
  <g id="svgg">
   <path d="m1.38,0.06c-0.51,0.16 -0.96,0.55 -1.19,1.03l-0.15,0.31l0,10.62l0,10.62l0.15,0.31c0.19,0.4 0.5,0.71 0.9,0.9l0.31,0.15l10.62,0l10.62,0l0.31,-0.15c0.4,-0.19 0.71,-0.5 0.9,-0.9l0.15,-0.31l0,-10.65l0,-10.65l-0.15,-0.3c-0.2,-0.39 -0.51,-0.69 -0.89,-0.87l-0.31,-0.15l-10.58,-0.01c-5.82,0 -10.63,0.01 -10.69,0.03m10.79,5.75c3.08,0.5 4.84,2.87 4.77,6.43c-0.06,3.15 -1.53,5.16 -4.33,5.91l-0.47,0.13l-2.52,0.02l-2.52,0.02l0,-6.29l0,-6.29l2.31,0c1.86,0 2.4,0.01 2.76,0.07m-2.06,6.21l0,3.99l0.74,0c2.27,0 3.04,-1.02 3.04,-4.01c0,-2.95 -0.79,-3.96 -3.08,-3.96l-0.69,0l0,3.99" fill="#faed27" fill-rule="evenodd" id="path0"/>
  </g>
 </g>

</svg>