<?xml version="1.0"?>
<svg width="24" height="24" xmlns="http://www.w3.org/2000/svg" xmlns:svg="http://www.w3.org/2000/svg" preserveAspectRatio="xMidYMid meet" version="1.0">
 <g class="layer">
  <title>Layer 1</title>
  <g fill="#000000" id="svg_1" transform="matrix(0.0046791, 0, 0, -0.0046791, -10.2788, 119.37)">
   <path d="m3343.45,25432.93c-18,-40 -43,-101 -54,-136c-48,-141 -53,-184 -58,-506l-5,-308l-59,-112c-108,-207 -153,-387 -152,-616c1,-467 254,-893 708,-1193c98,-64 272,-152 375,-188c36,-12 67,-24 69,-25c2,-2 -17,-25 -42,-51c-63,-66 -79,-89 -121,-164c-60,-110 -116,-305 -116,-405l0,-34l-137,0c-222,1 -237,13 -358,290c-46,105 -96,210 -111,231c-45,66 -144,150 -217,185c-95,45 -175,56 -384,52c-168,-3 -181,-5 -234,-29c-76,-36 -133,-90 -166,-157c-39,-80 -40,-191 -2,-273c58,-123 149,-180 300,-189c100,-6 138,-20 159,-59c5,-11 37,-92 69,-180c33,-89 76,-192 96,-230c77,-145 198,-260 350,-331c127,-59 185,-70 418,-77l207,-6l0,-269l0,-268l985,0l985,0l0,648c0,356 -5,691 -10,744c-18,188 -100,373 -221,503c-34,36 -60,67 -58,69c2,1 33,13 69,25c333,117 663,368 850,648c162,242 233,465 233,738c0,234 -39,389 -153,615l-59,115l-4,305c-6,363 -18,434 -113,639l-34,74l-167,-6c-190,-6 -254,-19 -380,-77c-105,-49 -163,-88 -240,-163c-52,-51 -65,-59 -90,-54c-15,2 -81,16 -145,30c-176,38 -326,50 -538,44c-185,-5 -285,-18 -457,-59l-91,-21l-64,58c-190,174 -382,245 -665,245l-134,0l-34,-72zm425,-177c102,-35 186,-91 303,-201l108,-103l87,26c232,71 390,91 657,84c226,-6 345,-24 537,-83l89,-27l72,69c200,195 301,248 494,261l93,6l16,-39c43,-103 54,-205 54,-525l0,-307l36,-53c122,-179 195,-447 180,-660c-40,-583 -520,-1051 -1244,-1215l-123,-28l185,-185c200,-201 239,-254 284,-386l27,-80l3,-602l3,-603l-765,0l-766,0l0,185c0,202 -6,234 -58,288c-56,59 -67,61 -327,68c-223,5 -245,7 -311,31c-124,44 -235,133 -297,238c-14,25 -58,131 -98,235c-76,200 -105,254 -163,299c-58,44 -105,59 -207,66c-103,8 -138,22 -157,66c-26,56 -7,110 48,139c39,20 336,21 402,1c62,-18 132,-68 167,-119c16,-24 61,-119 101,-212c85,-203 105,-239 162,-292c107,-98 188,-123 404,-123c159,0 198,7 251,46c53,40 74,85 89,197c18,128 46,222 92,312c31,58 68,100 221,251l184,180l-139,34c-183,43 -297,81 -419,139c-625,297 -932,866 -769,1429c31,105 70,192 127,280l45,70l4,339c4,307 6,345 26,415c35,126 29,121 136,116c55,-3 117,-14 156,-27z" fill="#252525" id="svg_2"/>
  </g>
 </g>

</svg>