<?xml version="1.0"?>
<svg width="24" height="24" xmlns="http://www.w3.org/2000/svg" xmlns:svg="http://www.w3.org/2000/svg" preserveAspectRatio="xMidYMid meet" version="1.0">
 <g class="layer">
  <title>Layer 1</title>
  <g fill="#000000" id="svg_1" transform="matrix(0.00468556, 0, 0, -0.00468556, -25.6627, 107.983)">
   <path d="m6062.79,22954.2c-265,-41 -482,-232 -561,-494c-25,-83 -25,-277 0,-360c65,-218 232,-393 445,-469c78,-28 97,-30 211,-30c172,0 276,33 410,133c117,87 233,267 260,405c16,77 16,230 0,297c-18,80 -82,206 -141,277c-88,107 -233,200 -359,230c-68,17 -197,22 -265,11zm245,-186c144,-40 265,-151 330,-303c35,-82 40,-243 11,-338c-67,-222 -296,-380 -515,-357c-179,19 -320,100 -406,234c-91,143 -101,337 -26,496c107,227 355,337 606,268z" fill="#252525" id="svg_2"/>
   <path d="m9116.79,21505.2c-249,-24 -491,-130 -662,-290c-41,-39 -78,-70 -81,-70c-3,0 -6,33 -6,73c0,86 -18,127 -73,171l-39,31l-482,0l-482,0l-41,-27c-80,-53 -73,101 -71,-1730l3,-1633l22,-31c13,-17 40,-40 60,-50c35,-18 72,-19 531,-22c323,-2 506,1 532,8c42,11 93,49 113,84c9,16 13,257 17,1021c5,978 6,1001 26,1056c108,295 403,411 686,268c71,-36 155,-116 183,-174c49,-105 48,-85 54,-1151l6,-1001l28,-36c57,-75 37,-72 563,-72l470,0l36,24c19,13 46,40 59,59l24,36l3,1150c3,1194 1,1259 -39,1416c-112,445 -462,779 -907,870c-118,24 -392,34 -533,20zm376,-170c246,-22 440,-109 615,-277c151,-143 246,-316 297,-538c17,-75 18,-151 18,-1250l0,-1170l-420,0l-420,0l-5,985c-6,968 -6,986 -27,1062c-49,175 -145,292 -307,374c-369,189 -786,9 -922,-396c-18,-52 -19,-116 -24,-1040l-5,-985l-468,-3l-467,-2l0,1580l0,1580l425,0l425,0l1,-272l0,-273l202,206c228,232 252,252 371,313c196,100 414,133 711,106z" fill="#252525" id="svg_3"/>
   <path d="m5727.79,21412.2c-52,-17 -136,-103 -149,-154c-8,-29 -10,-488 -9,-1600l3,-1558l30,-45c43,-63 104,-106 170,-120c37,-8 174,-10 422,-8l368,3l55,31c62,35 114,96 130,152c6,25 10,543 10,1564c0,1501 0,1528 -20,1581c-23,62 -76,117 -140,146c-43,20 -63,21 -440,20c-260,-1 -407,-5 -430,-12zm827,-181l28,-24l3,-1523c2,-1691 8,-1558 -65,-1579c-26,-8 -153,-10 -386,-8l-349,3l-24,28l-24,28l0,1525l0,1525l25,24l24,25l370,0l370,0l28,-24z" fill="#252525" id="svg_4"/>
  </g>
 </g>

</svg>