<?xml version="1.0"?>
<svg width="24" height="24" xmlns="http://www.w3.org/2000/svg" xmlns:svg="http://www.w3.org/2000/svg">
 <g class="layer">
  <title>Layer 1</title>
  <path d="m19,8.42l0,-1.42a7,7 0 0 0 -14,0l0,1.42a5,5 0 0 0 -3,4.58l0,6a5.01,5.01 0 0 0 5,5l10,0a5.01,5.01 0 0 0 5,-5l0,-6a5,5 0 0 0 -3,-4.58zm-12,-1.42a5,5 0 0 1 10,0l0,1l-10,0l0,-1zm13,12a3,3 0 0 1 -3,3l-10,0a3,3 0 0 1 -3,-3l0,-6a3,3 0 0 1 3,-3l10,0a3,3 0 0 1 3,3l0,6z" fill="#faed27" id="svg_1"/>
  <path d="m12,14a1,1 0 0 0 -1,1l0,2a1,1 0 0 0 2,0l0,-2a1,1 0 0 0 -1,-1z" fill="#faed27" id="svg_2"/>
 </g>
</svg>