<?xml version="1.0"?>
<svg width="24" height="24" xmlns="http://www.w3.org/2000/svg" xmlns:svg="http://www.w3.org/2000/svg" preserveAspectRatio="xMidYMid meet" version="1.0">
 <g class="layer">
  <title>Layer 1</title>
  <g id="svg_1">
   <path d="m10.93,0.04c-4.97,0.51 -9.07,4.15 -10.24,9.07c-0.29,1.21 -0.33,3.3 -0.12,4.54c0.21,1.18 0.52,2.14 1.06,3.24l0.45,0.9l-1.03,3.04c-0.56,1.66 -1.03,3.08 -1.03,3.12c0,0.05 1.45,-0.36 3.23,-0.93l3.23,-1.03l0.56,0.29c0.66,0.33 1.94,0.77 2.8,0.96c0.33,0.07 1.18,0.15 1.93,0.17c1.13,0.03 1.48,0.02 2.32,-0.13c2.51,-0.43 4.56,-1.49 6.37,-3.3c1.74,-1.75 2.78,-3.72 3.27,-6.17c0.21,-1.01 0.21,-3.17 0,-4.23c-0.83,-4.25 -3.77,-7.64 -7.84,-9.01c-1.44,-0.49 -3.42,-0.71 -4.95,-0.55l0.01,0.02l-0.01,-0.01zm2.89,2.05c3.58,0.63 6.54,3.22 7.66,6.71c0.62,1.96 0.58,4.28 -0.11,6.21c-0.98,2.73 -3.33,5.03 -6.06,5.96c-2.66,0.9 -5.66,0.6 -8.04,-0.78l-0.51,-0.3l-1.79,0.57c-0.99,0.32 -1.82,0.57 -1.87,0.57c-0.04,0 0.19,-0.8 0.52,-1.79l0.6,-1.78l-0.44,-0.69c-1.25,-1.97 -1.72,-4.6 -1.25,-6.95c0.81,-3.94 3.94,-7 7.92,-7.71c0.84,-0.15 2.48,-0.15 3.35,-0.01l0.01,-0.01l0.02,0z" fill="#faed27" id="svg_2"/>
   <path d="m7.71,6.14c-0.39,0.24 -0.99,0.96 -1.18,1.45c-0.26,0.68 -0.26,1.85 0.01,2.66c0.56,1.72 2.82,4.53 4.56,5.69c0.74,0.5 2.24,1.17 3.27,1.49c1.18,0.36 2.57,0.01 3.35,-0.84c0.27,-0.29 0.35,-0.46 0.46,-0.98c0.1,-0.44 0.12,-0.68 0.06,-0.78c-0.08,-0.17 -2.33,-1.44 -2.75,-1.55c-0.24,-0.06 -0.32,-0.01 -1.04,0.83c-0.36,0.42 -0.65,0.68 -0.74,0.68c-0.18,0 -1.18,-0.49 -1.65,-0.81c-0.55,-0.36 -1.16,-0.92 -1.58,-1.42c-0.36,-0.44 -1.19,-1.67 -1.19,-1.8c0,-0.03 0.21,-0.32 0.47,-0.62c0.75,-0.9 0.74,-0.81 0.16,-2.39c-0.29,-0.77 -0.58,-1.44 -0.68,-1.55c-0.15,-0.14 -0.27,-0.17 -0.72,-0.17c-0.39,0 -0.62,0.04 -0.78,0.14l-0.01,0.01l0,-0.02z" fill="#faed27" id="svg_3"/>
  </g>
 </g>
</svg>